<svg id="email" xmlns="http://www.w3.org/2000/svg" xmlns:xlink="http://www.w3.org/1999/xlink" width="25" height="17.535" viewBox="0 0 25 17.535">
  <defs>
    <linearGradient id="linear-gradient" x1="0.921" y1="1.1" x2="0.341" gradientUnits="objectBoundingBox">
      <stop offset="0" stop-color="#504481"/>
      <stop offset="1" stop-color="#e7eaff"/>
    </linearGradient>
  </defs>
  <path id="gmail" d="M29.754,22.814a.039.039,0,0,0,0-.011.147.147,0,0,1,0-.02.366.366,0,0,0-.018-.086s0-.008,0-.012l0,0a.366.366,0,0,0-.048-.086l-.014-.017a.37.37,0,0,0-.065-.062l-.007-.006a.368.368,0,0,0-.087-.042l-.021-.007a.366.366,0,0,0-.1-.015H5.122a.366.366,0,0,0-.1.015L5,22.468a.368.368,0,0,0-.087.042l-.007.006a.37.37,0,0,0-.065.062l-.014.017a.366.366,0,0,0-.048.086s0,0,0,0,0,.008,0,.012a.366.366,0,0,0-.018.086c0,.007,0,.013,0,.02s0,.007,0,.011v16.8s0,.009,0,.014a.366.366,0,0,0,0,.04c0,.011,0,.021.006.032a.367.367,0,0,0,.012.038c0,.01.007.02.011.029a.364.364,0,0,0,.02.036c.005.008.01.017.016.025a.367.367,0,0,0,.026.032l.021.022.012.013s.008,0,.011.006a.366.366,0,0,0,.1.055l.023.007a.365.365,0,0,0,.1.018H29.392a.365.365,0,0,0,.1-.018l.021-.007a.366.366,0,0,0,.1-.055l.011-.006.012-.013.021-.022a.368.368,0,0,0,.026-.032c.006-.008.011-.016.016-.025a.363.363,0,0,0,.02-.036c0-.009.008-.019.011-.029a.367.367,0,0,0,.012-.038c0-.011,0-.021.006-.032a.366.366,0,0,0,0-.04s0-.009,0-.014Zm-16.34,7.621,3.6,3.1a.369.369,0,0,0,.482,0l3.6-3.1,7.492,8.806H5.922ZM5.492,38.608V23.619l7.363,6.335Zm16.161-8.654,7.363-6.335V38.608Zm6.737-6.77L20.9,29.629l0,0,0,0-3.637,3.129-3.637-3.129,0,0,0,0L6.118,23.184Z" transform="translate(-4.754 -22.446)" fill="url(#linear-gradient)"/>
</svg>
