<svg  xmlns="http://www.w3.org/2000/svg" width="16.25" height="16.25" viewBox="0 0 16.25 16.25">
  <path  d="M11.77,5.766a.757.757,0,0,0-1.066,0L6.977,9.5a.753.753,0,0,0-.023,1.039l3.672,3.684a.753.753,0,1,0,1.066-1.062L8.574,10l3.2-3.168A.753.753,0,0,0,11.77,5.766Z" transform="translate(-1.875 -1.875)" fill="rgba(174,178,245,1)"/>
  <path  d="M10,1.875A8.125,8.125,0,1,0,18.125,10,8.124,8.124,0,0,0,10,1.875Zm4.859,12.984A6.872,6.872,0,1,1,5.141,5.141a6.872,6.872,0,1,1,9.719,9.719Z" transform="translate(-1.875 -1.875)" fill="rgba(174,178,245,1)"/>
</svg>
