<svg xmlns="http://www.w3.org/2000/svg" xmlns:xlink="http://www.w3.org/1999/xlink" width="40" height="42" viewBox="0 0 40 42">
  <defs>
    <linearGradient id="linear-gradient" x1="0.5" y1="0.175" x2="0.5" y2="1" gradientUnits="objectBoundingBox">
      <stop offset="0" stop-color="#aeb2f5"/>
      <stop offset="1" stop-color="#504481"/>
    </linearGradient>
    <filter id="wish-list" x="0" y="0" width="40" height="42" filterUnits="userSpaceOnUse">
      <feOffset dx="1" dy="2" input="SourceAlpha"/>
      <feGaussianBlur stdDeviation="2" result="blur"/>
      <feFlood flood-color="#aeb2f5" flood-opacity="0.651"/>
      <feComposite operator="in" in2="blur"/>
      <feComposite in="SourceGraphic"/>
    </filter>
  </defs>
  <g transform="matrix(1, 0, 0, 1, 0, 0)" filter="url(#wish-list)">
    <path id="wish-list-2" data-name="wish-list" d="M59.495,16H38.487a2.945,2.945,0,0,0-1.22.3,2.32,2.32,0,0,0-1.272,2.2V43h-3.5a.5.5,0,0,0-.5.485,2.767,2.767,0,0,0,.69,1.845,2.338,2.338,0,0,0,1.751.67H55.495v0a2.473,2.473,0,0,0,2.473-2.484V43.5L58,24h1.5a.5.5,0,0,0,.5-.5v-7a.5.5,0,0,0-.5-.5ZM34.436,45a1.366,1.366,0,0,1-1.029-.362A1.438,1.438,0,0,1,33.063,44H52.985a2.929,2.929,0,0,0,.245.723,2.437,2.437,0,0,0,.162.277ZM57,18.5l-.029,24.989a2.09,2.09,0,0,1-.219.778A1.364,1.364,0,0,1,55.42,45a1.31,1.31,0,0,1-1.283-.7,2.016,2.016,0,0,1-.209-.8.5.5,0,0,0-.5-.5H36.995V18.5a1.32,1.32,0,0,1,.695-1.29,1.99,1.99,0,0,1,.8-.21H57.5a2.489,2.489,0,0,0-.5,1.5Zm2,4.5H58V18.5a1.5,1.5,0,0,1,1-1.414Zm-14.023-.752-.629,1.807a.5.5,0,0,0,.713.6l1.939-1.067,1.939,1.067a.5.5,0,0,0,.713-.6l-.629-1.807,1.253-1.38a.5.5,0,0,0-.37-.836H48.381l-.948-1.739a.5.5,0,0,0-.878,0l-.948,1.739h-1.52a.5.5,0,0,0-.37.836Zm.933-1.216a.5.5,0,0,0,.439-.261l.651-1.194.651,1.194a.5.5,0,0,0,.439.261h.687l-.694.764a.5.5,0,0,0-.1.5l.3.856-1.038-.571a.5.5,0,0,0-.482,0l-1.038.571.3-.856a.5.5,0,0,0-.1-.5l-.694-.764ZM38.995,31h3a.5.5,0,0,0,.5-.5v-3a.5.5,0,0,0-.5-.5h-3a.5.5,0,0,0-.5.5v3A.5.5,0,0,0,38.995,31Zm.5-3h2v2h-2Zm-.5,8h3a.5.5,0,0,0,.5-.5v-3a.5.5,0,0,0-.5-.5h-3a.5.5,0,0,0-.5.5v3A.5.5,0,0,0,38.995,36Zm.5-3h2v2h-2Zm-.5,8h3a.5.5,0,0,0,.5-.5v-3a.5.5,0,0,0-.5-.5h-3a.5.5,0,0,0-.5.5v3A.5.5,0,0,0,38.995,41Zm.5-3h2v2h-2Zm8-10.5v3a.5.5,0,0,0,.5.5h3a.5.5,0,0,0,.5-.5v-3a.5.5,0,0,0-.5-.5h-3A.5.5,0,0,0,47.495,27.5Zm1,.5h2v2h-2Zm2.5,4h-3a.5.5,0,0,0-.5.5v3a.5.5,0,0,0,.5.5h3a.5.5,0,0,0,.5-.5v-3A.5.5,0,0,0,50.995,32Zm-.5,3h-2V33h2Zm.5,2h-3a.5.5,0,0,0-.5.5v3a.5.5,0,0,0,.5.5h3a.5.5,0,0,0,.5-.5v-3A.5.5,0,0,0,50.995,37Zm-.5,3h-2V38h2Zm-7-12a.5.5,0,0,1,.5-.5h2a.5.5,0,0,1,0,1h-2A.5.5,0,0,1,43.495,28Zm0,2a.5.5,0,0,1,.5-.5h2a.5.5,0,0,1,0,1h-2A.5.5,0,0,1,43.495,30Zm0,3a.5.5,0,0,1,.5-.5h2a.5.5,0,0,1,0,1h-2A.5.5,0,0,1,43.495,33Zm0,2a.5.5,0,0,1,.5-.5h2a.5.5,0,0,1,0,1h-2A.5.5,0,0,1,43.495,35Zm0,3a.5.5,0,0,1,.5-.5h2a.5.5,0,0,1,0,1h-2A.5.5,0,0,1,43.495,38Zm0,2a.5.5,0,0,1,.5-.5h2a.5.5,0,0,1,0,1h-2A.5.5,0,0,1,43.495,40Zm9-12a.5.5,0,0,1,.5-.5h2a.5.5,0,0,1,0,1h-2A.5.5,0,0,1,52.495,28Zm0,2a.5.5,0,0,1,.5-.5h2a.5.5,0,0,1,0,1h-2A.5.5,0,0,1,52.495,30Zm0,3a.5.5,0,0,1,.5-.5h2a.5.5,0,0,1,0,1h-2A.5.5,0,0,1,52.495,33Zm0,2a.5.5,0,0,1,.5-.5h2a.5.5,0,0,1,0,1h-2A.5.5,0,0,1,52.495,35Zm0,3a.5.5,0,0,1,.5-.5h2a.5.5,0,0,1,0,1h-2A.5.5,0,0,1,52.495,38Zm0,2a.5.5,0,0,1,.5-.5h2a.5.5,0,0,1,0,1h-2A.5.5,0,0,1,52.495,40Z" transform="translate(-26.99 -12)" fill="url(#linear-gradient)"/>
  </g>
</svg>
