<svg xmlns="http://www.w3.org/2000/svg" width="57.7" height="55.916" viewBox="0 0 57.7 55.916">
  <g  transform="translate(0 13.018) rotate(-16)">
    <g id="phone" transform="translate(0 16.578)" opacity="0.419" style="mix-blend-mode: lighten;isolation: isolate">
      <g id="phone-2" data-name="phone" transform="translate(0 28.048) rotate(-90)">
        <path  d="M25.633,11.165l-.279,0,.054-7.092A4.207,4.207,0,0,0,21,0L4.765.112A4.357,4.357,0,0,0,.3,4.248L0,43.154a4.207,4.207,0,0,0,4.406,4.075l16.238-.112a4.357,4.357,0,0,0,4.468-4.136l.2-26.766.279,0Z" transform="translate(0 0)" fill="#3f317b" opacity="0.788"/>
        <path d="M15.412,0,13.778.011a1.414,1.414,0,0,1-.125,1.23,1.211,1.211,0,0,1-1.011.588l-7.168.05a1.169,1.169,0,0,1-1-.574A1.4,1.4,0,0,1,4.365.077L2.84.087A2.713,2.713,0,0,0,.266,2.871L0,37.925a2.62,2.62,0,0,0,2.532,2.748L15.1,40.586A2.713,2.713,0,0,0,17.678,37.8l.266-35.054A2.619,2.619,0,0,0,15.412,0Z" transform="translate(3.524 3.5)" fill="rgba(122,125,186,0.82)" opacity="0.997"/>
      </g>
    </g>
    <g id="tv" transform="translate(11.469 0) rotate(3)" opacity="0.763" style="mix-blend-mode: lighten;isolation: isolate">
      <ellipse id="shadow" cx="13.869" cy="2.983" rx="13.869" ry="2.983" transform="matrix(0.999, -0.035, 0.035, 0.999, 1.703, 30.864)" fill="#cdd1ea"/>
      <g transform="translate(1.763 0) rotate(3)">
        <path  d="M8.936,14.165H8.923c-.481-.016-7.223-.245-7.963-.824C.2,12.748-.022,8.572,0,7.082-.022,5.593.2,1.417.959.825,1.7.246,8.442.017,8.923,0H8.95c.481.016,7.224.245,7.963.824.756.592.981,4.769.958,6.258.024,1.489-.2,5.666-.958,6.258-.74.579-7.483.808-7.963.824H8.936Z" transform="matrix(0.995, -0.105, 0.105, 0.995, 3.734, 15.204)" fill="#e7eaff"/>
        <path  d="M7.117,10.431H7.106c-.383-.012-5.753-.18-6.342-.607S-.018,6.312,0,5.216C-.018,4.119.162,1.043.764.607S6.723.012,7.106,0h.022c.383.012,5.753.18,6.342.607s.782,3.512.763,4.608c.019,1.1-.161,4.173-.763,4.608s-5.959.6-6.342.607H7.117Z" transform="matrix(0.996, -0.087, 0.087, 0.996, 6.058, 16.433)" fill="#1e194f"/>
        <g transform="matrix(0.996, -0.087, 0.087, 0.996, 3.939, 29.962)">
          <path d="M.427,0S.043,2.5,0,3.046s.241.977.712.449S2.746.322,2.746.322Z" transform="translate(0 0)" fill="#282241"/>
          <path d="M2.319,0s.384,2.5.423,3.046-.241.977-.712.449S0,.322,0,.322Z" transform="translate(17.652 0)" fill="#282241"/>
        </g>
        <path  d="M13.233,2.649a17.338,17.338,0,0,1-2.541.068,17.337,17.337,0,0,1-2.541-.068C5.044,2.373,1.777,5.3,1.777,5.3S-1.554,4.769.905,2.362C3.143.173,9.479.012,10.606,0h.173c1.127.011,7.463.173,9.7,2.362,2.46,2.407-.871,2.936-.871,2.936S16.34,2.373,13.233,2.649Z" transform="matrix(0.996, -0.087, 0.087, 0.996, 1.809, 10.953)" fill="#181524"/>
        <path d="M11.633,18.175H11.6c-.265-.009-2.661-.089-5.049-.258-1.374-.1-2.506-.206-3.367-.324a5.378,5.378,0,0,1-1.935-.476c-.536-.414-.841-2.177-1-3.583A38.682,38.682,0,0,1,0,9.088,38.68,38.68,0,0,1,.245,4.641c.162-1.406.467-3.169,1-3.583A5.38,5.38,0,0,1,3.182.583C4.043.465,5.175.356,6.549.259,8.951.089,11.334.01,11.6,0h.036C11.9.01,14.3.09,16.683.259c1.374.1,2.506.206,3.367.324a5.38,5.38,0,0,1,1.935.476c.536.414.841,2.177,1,3.583a38.66,38.66,0,0,1,.243,4.446,38.664,38.664,0,0,1-.243,4.447c-.162,1.406-.467,3.169-1,3.583a5.379,5.379,0,0,1-1.935.476c-.86.118-1.993.227-3.367.324-2.4.17-4.785.249-5.049.258h0Zm-.017-2.091h.014c.079,0,1.961-.064,3.838-.2,2.369-.17,3.725-.377,4.03-.616.407-.319.639-1.676.762-2.759a30.141,30.141,0,0,0,.184-3.424,30.139,30.139,0,0,0-.184-3.424c-.123-1.083-.355-2.44-.762-2.759-.305-.239-1.661-.446-4.03-.616-1.825-.131-3.637-.192-3.838-.2H11.6c-.079,0-1.96.064-3.838.2-2.369.17-3.724.377-4.03.616-.407.319-.639,1.676-.762,2.759a30.133,30.133,0,0,0-.184,3.424,30.135,30.135,0,0,0,.184,3.424c.123,1.082.355,2.44.762,2.759.305.239,1.661.446,4.03.616,1.825.131,3.637.192,3.838.2h.014Z" transform="matrix(0.996, -0.087, 0.087, 0.996, 1.061, 13.055)" fill="#282241"/>
        <g transform="matrix(0.996, -0.087, 0.087, 0.996, 0, 0.931)">
          <line  x2="6.271" y2="9.755" transform="translate(0.813 0.813)" fill="none" stroke="#4f4b62" stroke-width="1"/>
          <line  x1="2.323" y2="6.503" transform="translate(7.549 4.065)" fill="none" stroke="#4f4b62" stroke-width="1"/>
          <circle  cx="0.697" cy="0.697" r="0.697" fill="#352f4b"/>
          <circle cx="0.697" cy="0.697" r="0.697" transform="translate(9.29 3.26)" fill="#352f4b"/>
          <path d="M.031,2.956a2.555,2.555,0,1,1,5.076-.524,6.23,6.23,0,0,1-3.133.82A6.446,6.446,0,0,1,.031,2.956Z" transform="translate(4.877 8.594)" fill="#4f4b62" opacity="0.999"/>
        </g>
        <g transform="matrix(0.996, -0.087, 0.087, 0.996, 10.228, 18.544)" fill="none" stroke="#fafbff" stroke-width="1">
          <circle cx="3.115" cy="3.115" r="3.115" stroke="none"/>
          <circle cx="3.115" cy="3.115" r="2.615" fill="none"/>
        </g>
        <path  d="M1.333,0,2.667,2H0Z" transform="matrix(0.087, 0.996, -0.996, 0.087, 14.844, 20.009)" fill="#d02929"/>
      </g>
    </g>
  </g>
</svg>
