<svg id="password" xmlns="http://www.w3.org/2000/svg" xmlns:xlink="http://www.w3.org/1999/xlink" width="25" height="29.387" viewBox="0 0 25 29.387">
  <defs>
    <linearGradient id="linear-gradient" x1="1" y1="1" x2="0.292" y2="0.254" gradientUnits="objectBoundingBox">
      <stop offset="0" stop-color="#504481"/>
      <stop offset="1" stop-color="#e7eaff"/>
    </linearGradient>
  </defs>
  <path id="lock" d="M38.6,24.074v1.036a.434.434,0,1,1-.868,0V24.074a.434.434,0,1,1,.868,0Zm0-10.111V22.2a.434.434,0,1,1-.868,0V14.4H14.465V33.274H37.728V27.059a.434.434,0,1,1,.868,0v6.65a.434.434,0,0,1-.434.434H14.03a.434.434,0,0,1-.434-.434V13.963a.434.434,0,0,1,.434-.434h4.5V12.318A7.566,7.566,0,0,1,30.051,5.87a.434.434,0,1,1-.454.74,6.7,6.7,0,0,0-10.2,5.709v1.212h.62V12.318a6.076,6.076,0,0,1,12.152,0v1.212h.62V12.318a6.685,6.685,0,0,0-1.709-4.469.434.434,0,0,1,.646-.578,7.552,7.552,0,0,1,1.93,5.047v1.212h4.5a.434.434,0,0,1,.433.434Zm-17.708-.434H31.3V12.318a5.208,5.208,0,1,0-10.416,0Zm2.616,13.4a.434.434,0,0,0-.535.3l-.391,1.393a.434.434,0,0,0,.418.551h6.2a.434.434,0,0,0,.418-.551l-1.251-4.462a3.091,3.091,0,1,0-4.534,0l-.35,1.249a.434.434,0,0,0,.836.234l.419-1.5a.434.434,0,0,0-.127-.439,2.223,2.223,0,1,1,2.979,0,.434.434,0,0,0-.127.439l1.166,4.157H23.569l.236-.843a.434.434,0,0,0-.3-.534Z" transform="translate(-13.596 -4.755)" fill="url(#linear-gradient)"/>
</svg>
