<svg xmlns="http://www.w3.org/2000/svg" xmlns:xlink="http://www.w3.org/1999/xlink" width="54.107" height="37" viewBox="0 0 54.107 37">
  <defs>
    <linearGradient id="linear-gradient" x1="0.5" y1="0.321" x2="0.5" y2="1" gradientUnits="objectBoundingBox">
      <stop offset="0" stop-color="#aeb2f5"/>
      <stop offset="1" stop-color="#504481"/>
    </linearGradient>
    <filter id="rating" x="0" y="0" width="54.107" height="37" filterUnits="userSpaceOnUse">
      <feOffset dx="1" dy="2" input="SourceAlpha"/>
      <feGaussianBlur stdDeviation="2" result="blur"/>
      <feFlood flood-color="#aeb2f5" flood-opacity="0.651"/>
      <feComposite operator="in" in2="blur"/>
      <feComposite in="SourceGraphic"/>
    </filter>
  </defs>
  <g transform="matrix(1, 0, 0, 1, 0, 0)" filter="url(#rating)">
    <path id="rating-2" data-name="rating" d="M29.41,24.243a.719.719,0,0,1-1.069.777l-7.288-4.328L13.765,25.02a.719.719,0,0,1-1.069-.777l1.864-8.268L8.193,10.38A.72.72,0,0,1,8.6,9.124l8.438-.783L20.392.556a.72.72,0,0,1,1.322,0l1.393,3.235a.72.72,0,0,1-1.322.569l-.732-1.7L18.192,9.3a.719.719,0,0,1-.594.432l-7.2.668,5.433,4.773a.72.72,0,0,1,.227.7l-1.59,7.056,6.219-3.693a.719.719,0,0,1,.735,0l6.219,3.693-1.59-7.056a.72.72,0,0,1,.227-.7L31.71,10.4l-7.2-.668a.719.719,0,0,1-.594-.432l-.975-2.263a.72.72,0,0,1,1.322-.569l.805,1.871,8.439.783a.719.719,0,0,1,.409,1.257l-6.367,5.594ZM11.952,17.121,8.382,16.79,6.964,13.5a.719.719,0,0,0-1.321,0L4.223,16.79l-3.571.331a.72.72,0,0,0-.409,1.255l1.3,1.142a.719.719,0,1,0,.95-1.079L2.448,18.4l2.333-.216a.719.719,0,0,0,.594-.432L6.3,15.6l.926,2.151a.72.72,0,0,0,.594.432l2.332.216-1.76,1.547a.719.719,0,0,0-.227.7l.515,2.285-2.014-1.2a.719.719,0,0,0-.735,0l-2.015,1.2.516-2.286a.719.719,0,0,0-1.4-.316l-.882,3.915a.72.72,0,0,0,1.07.777L6.3,23.189,9.385,25.02a.719.719,0,0,0,1.069-.777l-.788-3.5,2.694-2.368a.719.719,0,0,0-.408-1.255Zm30.12.494a.72.72,0,0,0-.618-.494l-3.571-.331L36.466,13.5a.719.719,0,0,0-1.321,0L33.725,16.79l-3.571.331a.719.719,0,0,0-.408,1.255l1.426,1.252a.719.719,0,1,0,.95-1.079l-.171-.15,2.332-.216a.72.72,0,0,0,.594-.432L35.8,15.6l.927,2.151a.719.719,0,0,0,.594.432l2.332.216L37.9,19.946a.719.719,0,0,0-.227.7l.515,2.285-2.015-1.2a.719.719,0,0,0-.735,0l-2.014,1.2.515-2.285a.719.719,0,0,0-1.4-.316l-.882,3.915a.719.719,0,0,0,1.069.777L35.8,23.189l3.083,1.831a.72.72,0,0,0,1.07-.777l-.788-3.5,2.694-2.367a.719.719,0,0,0,.209-.763Zm0,0" transform="translate(5 3.88)" fill="url(#linear-gradient)"/>
  </g>
</svg>
