<svg xmlns="http://www.w3.org/2000/svg" width="25" height="25" viewBox="0 0 25 25">
<defs>
<linearGradient id="linear-gradient" x1="0.196" y1="0.18" x2="0.882" y2="0.849" gradientUnits="objectBoundingBox">
      <stop offset="0" stop-color="#FF8FBD"/>
      <stop offset="1" stop-color="#d05888"/>
    </linearGradient>
</defs>
  <g id="play-button" style="isolation: isolate" >
    <path  id="play-button-2" data-name="play-button" d="M12.355.083A12.355,12.355,0,1,0,24.71,12.438,12.355,12.355,0,0,0,12.355.083Zm0,24.034A11.679,11.679,0,1,1,24.034,12.438,11.679,11.679,0,0,1,12.355,24.117ZM23.166,12.438a.338.338,0,0,1-.676,0A10.131,10.131,0,1,0,22,15.555a.338.338,0,1,1,.643.208,10.813,10.813,0,1,1,.523-3.325ZM9.459,7.264a.338.338,0,0,1-.453.152L7.95,6.89V17.985l11.1-5.565-3.894-1.941a.338.338,0,1,1,.3-.605l4.5,2.242a.338.338,0,0,1,0,.6L7.765,18.834a.338.338,0,0,1-.489-.3V6.344a.338.338,0,0,1,.489-.3l1.544.77a.338.338,0,0,1,.151.453Zm2.1,1.423a.338.338,0,1,1,.3-.6L12.9,8.6a.338.338,0,1,1-.3.6ZM8.979,8.552a.338.338,0,0,0-.16.287V16.03a.338.338,0,0,0,.489.3L16.5,12.725a.338.338,0,0,0,0-.6L9.308,8.537a.338.338,0,0,0-.328.015Zm.515.833,6.1,3.039L9.5,15.482Z" transform="translate(0 -0.083)" fill="url(#linear-gradient)"/>
  </g>
</svg>
