<svg xmlns="http://www.w3.org/2000/svg" xmlns:xlink="http://www.w3.org/1999/xlink" width="39" height="39.001" viewBox="0 0 39 39.001">
  <defs>
    <linearGradient id="linear-gradient" x1="0.194" y1="0.153" x2="0.874" y2="0.87" gradientUnits="objectBoundingBox">
      <stop offset="0" stop-color="#e7eaff"/>
      <stop offset="1" stop-color="#aeb2f5"/>
    </linearGradient>
    <filter id="star" x="0" y="0" width="39" height="39.001" filterUnits="userSpaceOnUse">
      <feOffset input="SourceAlpha"/>
      <feGaussianBlur stdDeviation="1.5" result="blur"/>
      <feFlood flood-color="#aeb2f5"/>
      <feComposite operator="in" in2="blur"/>
      <feComposite in="SourceGraphic"/>
    </filter>
  </defs>
  <g transform="matrix(1, 0, 0, 1, 0, 0)" filter="url(#star)">
    <path id="star-2" data-name="star" d="M6.3,13.351l.533.692a.41.41,0,0,1-.649.5l-.533-.692a.41.41,0,1,1,.649-.5ZM25.97,11.062A.41.41,0,0,0,25.7,10.8L19.086,8.846l-3.9-5.684a.409.409,0,0,0-.676,0l-3.9,5.684-6.61,1.948a.41.41,0,0,0-.209.643l.576.749a.41.41,0,1,0,.649-.5l-.212-.276,6.177-1.82a.409.409,0,0,0,.222-.162l3.64-5.312,3.64,5.312a.409.409,0,0,0,.222.162l6.176,1.821-3.927,5.1a.408.408,0,0,0-.085.261l.177,6.437-6.067-2.157a.412.412,0,0,0-.274,0L8.648,23.214l.177-6.437a.407.407,0,0,0-.085-.261l-.623-.81a.41.41,0,0,0-.649.5L8,16.9l-.189,6.889a.41.41,0,0,0,.547.4l6.493-2.31,6.493,2.309a.41.41,0,0,0,.547-.4L21.7,16.9l4.2-5.461a.409.409,0,0,0,.066-.376Zm-4.341,1.766-2.492,3.239.112,4.086a.41.41,0,0,1-.547.4l-3.85-1.37L11,20.55a.41.41,0,0,1-.547-.4l.112-4.085L8.076,12.827a.41.41,0,0,1,.209-.643l3.92-1.156,2.31-3.371a.425.425,0,0,1,.676,0l2.31,3.371,3.92,1.156a.41.41,0,0,1,.209.643ZM20.615,12.8l-3.486-1.028a.411.411,0,0,1-.222-.162l-2.055-3-2.055,3a.411.411,0,0,1-.222.162L9.089,12.8l2.216,2.879a.408.408,0,0,1,.085.261l-.1,3.633,3.425-1.217a.41.41,0,0,1,.274,0l3.425,1.217-.1-3.632a.408.408,0,0,1,.085-.261Zm4.737-8.464a.41.41,0,1,0-.574.585,14.128,14.128,0,1,1-2.8-2.142.41.41,0,1,0,.413-.709,15,15,0,1,0,2.964,2.265Z" transform="translate(4.67 4.47)" fill="url(#linear-gradient)"/>
  </g>
</svg>
