<svg xmlns="http://www.w3.org/2000/svg" xmlns:xlink="http://www.w3.org/1999/xlink" width="39" height="39" viewBox="0 0 39 39">
  <defs>
    <linearGradient id="linear-gradient" x1="0.133" y1="0.162" x2="0.87" y2="0.878" gradientUnits="objectBoundingBox">
      <stop offset="0" stop-color="#e7eaff"/>
      <stop offset="1" stop-color="#aeb2f5"/>
    </linearGradient>
    <filter id="Path_14" x="0" y="0" width="39" height="39" filterUnits="userSpaceOnUse">
      <feOffset input="SourceAlpha"/>
      <feGaussianBlur stdDeviation="1.5" result="blur"/>
      <feFlood flood-color="#aeb2f5"/>
      <feComposite operator="in" in2="blur"/>
      <feComposite in="SourceGraphic"/>
    </filter>
  </defs>
  <g transform="matrix(1, 0, 0, 1, 0, 0)" filter="url(#Path_14)">
    <path id="Path_14-2" data-name="Path 14" d="M15,0A15,15,0,1,0,30,15,15,15,0,0,0,15,0Zm0,29.18A14.18,14.18,0,1,1,29.18,15,14.18,14.18,0,0,1,15,29.18Zm9.041-5.918a.41.41,0,0,1,.006.58c-.253.258-.519.509-.791.743a.41.41,0,1,1-.536-.621c.255-.22.5-.454.74-.7a.41.41,0,0,1,.58-.007ZM27.656,15a12.639,12.639,0,0,1-1.646,6.238.41.41,0,0,1-.713-.406,11.833,11.833,0,1,0-5.25,4.873.41.41,0,0,1,.352.741,12.52,12.52,0,0,1-5.4,1.21A12.656,12.656,0,1,1,27.656,15ZM9.373,12.948,8.006,14.316l5.478,5.478,8.51-8.51-1.078-1.078-7.142,7.144a.422.422,0,0,1-.58,0L10.725,14.88a.41.41,0,0,1,.58-.58l2.18,2.18,7.142-7.144a.41.41,0,0,1,.58,0l1.657,1.657a.41.41,0,0,1,0,.58l-9.09,9.09a.41.41,0,0,1-.58,0L7.136,14.606a.41.41,0,0,1,0-.58l1.657-1.657a.41.41,0,0,1,.58.58Z" transform="translate(4.5 4.5)" fill="url(#linear-gradient)"/>
  </g>
</svg>
