<svg id="star" xmlns="http://www.w3.org/2000/svg" xmlns:xlink="http://www.w3.org/1999/xlink" transform="translate(4.5 4.5)" width="37" height="37" viewBox="0 0 37 37">
  <defs>
    <linearGradient id="linear-gradient" x1="0.197" y1="0.151" x2="0.859" y2="0.85" gradientUnits="objectBoundingBox">
      <stop offset="0" stop-color="#e7eaff"/>
      <stop offset="1" stop-color="#961f56"/>
    </linearGradient>
  </defs>
  <path id="star-2" data-name="star" d="M5.873,12.462l.5.646a.382.382,0,1,1-.606.466l-.5-.646a.382.382,0,1,1,.606-.466Zm18.355-2.136a.382.382,0,0,0-.255-.249L17.8,8.259,14.166,2.954a.382.382,0,0,0-.63,0L9.9,8.259,3.73,10.077a.383.383,0,0,0-.195.6l.538.7a.382.382,0,1,0,.606-.466l-.2-.257,5.765-1.7a.382.382,0,0,0,.207-.151l3.4-4.957,3.4,4.957a.382.382,0,0,0,.207.151l5.765,1.7-3.665,4.762a.38.38,0,0,0-.079.244l.165,6.008-5.663-2.013a.384.384,0,0,0-.256,0L8.06,21.668l.165-6.008a.38.38,0,0,0-.079-.244l-.582-.756a.382.382,0,0,0-.606.466l.5.648L7.281,22.2a.382.382,0,0,0,.51.371l6.06-2.156,6.06,2.155a.382.382,0,0,0,.51-.371l-.177-6.43,3.922-5.1a.382.382,0,0,0,.061-.351Zm-4.052,1.648L17.85,15l.1,3.813a.382.382,0,0,1-.51.371L13.851,17.9l-3.594,1.279a.382.382,0,0,1-.51-.371L9.852,15,7.526,11.974a.383.383,0,0,1,.195-.6L11.379,10.3,13.536,7.15a.4.4,0,0,1,.63,0L16.323,10.3l3.659,1.079a.383.383,0,0,1,.195.6Zm-.946-.024-3.254-.959a.383.383,0,0,1-.207-.151l-1.918-2.8-1.918,2.8a.383.383,0,0,1-.207.151l-3.254.96,2.069,2.687a.381.381,0,0,1,.079.244l-.093,3.391,3.2-1.136a.382.382,0,0,1,.256,0l3.2,1.136-.093-3.39a.381.381,0,0,1,.079-.244Zm4.421-7.9a.383.383,0,1,0-.536.546,13.186,13.186,0,1,1-2.616-2,.383.383,0,1,0,.386-.661,14,14,0,1,0,2.766,2.114Z" transform="translate(0.167 -0.029)" fill="url(#linear-gradient)"/>
</svg>
