<svg id="Layer_2" data-name="Layer 2" xmlns="http://www.w3.org/2000/svg" xmlns:xlink="http://www.w3.org/1999/xlink" width="28" height="28" viewBox="0 0 28 28">
  <defs>
    <linearGradient id="linear-gradient" x1="0.196" y1="0.18" x2="0.882" y2="0.849" gradientUnits="objectBoundingBox">
      <stop offset="0" stop-color="#e7eaff"/>
      <stop offset="1" stop-color="#961f56"/>
    </linearGradient>
  </defs>
  <path id="Path_14" data-name="Path 14" d="M14,0A14,14,0,1,0,28,14,14,14,0,0,0,14,0Zm0,27.234A13.234,13.234,0,1,1,27.234,14,13.234,13.234,0,0,1,14,27.234Zm8.438-5.523a.383.383,0,0,1,.006.541c-.236.241-.484.475-.738.694a.383.383,0,1,1-.5-.58c.238-.2.47-.423.691-.649a.383.383,0,0,1,.541-.006ZM25.812,14a11.8,11.8,0,0,1-1.537,5.822.383.383,0,0,1-.666-.379,11.044,11.044,0,1,0-4.9,4.548.383.383,0,1,1,.328.692A11.685,11.685,0,0,1,14,25.812,11.812,11.812,0,1,1,25.812,14ZM8.748,12.085,7.472,13.361l5.113,5.113,7.943-7.943L19.521,9.525l-6.666,6.667a.394.394,0,0,1-.541,0l-2.3-2.3a.383.383,0,0,1,.541-.541l2.034,2.034,6.666-6.668a.383.383,0,0,1,.541,0L21.34,10.26a.383.383,0,0,1,0,.541l-8.484,8.484a.383.383,0,0,1-.541,0L6.66,13.632a.383.383,0,0,1,0-.541l1.547-1.547a.383.383,0,0,1,.541.541Z" fill="url(#linear-gradient)"/>
</svg>
