<svg xmlns="http://www.w3.org/2000/svg" xmlns:xlink="http://www.w3.org/1999/xlink" width="44" height="44.001" viewBox="0 0 44 44.001">
  <defs>
    <linearGradient id="linear-gradient" x1="0.203" y1="0.15" x2="0.921" y2="0.888" gradientUnits="objectBoundingBox">
      <stop offset="0" stop-color="#e7eaff"/>
      <stop offset="1" stop-color="#d05888"/>
    </linearGradient>
    <filter id="star" x="0" y="0" width="44" height="44.001" filterUnits="userSpaceOnUse">
      <feOffset input="SourceAlpha"/>
      <feGaussianBlur stdDeviation="1.5" result="blur"/>
      <feFlood flood-color="#d05888"/>
      <feComposite operator="in" in2="blur"/>
      <feComposite in="SourceGraphic"/>
    </filter>
  </defs>
  <g transform="matrix(1, 0, 0, 1, 0, 0)" filter="url(#star)">
    <path id="star-2" data-name="star" d="M7.383,15.571l.622.807a.478.478,0,1,1-.758.583l-.622-.808a.478.478,0,1,1,.757-.583ZM30.326,12.9a.478.478,0,0,0-.319-.311l-7.712-2.274L17.749,3.685a.478.478,0,0,0-.788,0l-4.545,6.631L4.7,12.589a.478.478,0,0,0-.244.75l.673.874a.478.478,0,1,0,.758-.583l-.248-.322,7.206-2.123A.478.478,0,0,0,13.109,11l4.247-6.2L21.6,11a.478.478,0,0,0,.259.188l7.206,2.124-4.581,5.953a.475.475,0,0,0-.1.3l.206,7.51L17.515,24.56a.48.48,0,0,0-.32,0l-7.078,2.517.206-7.51a.475.475,0,0,0-.1-.3L9.5,18.319a.478.478,0,0,0-.758.583l.623.81-.221,8.037a.478.478,0,0,0,.638.464l7.575-2.695,7.575,2.694a.478.478,0,0,0,.638-.464l-.221-8.037,4.9-6.371A.477.477,0,0,0,30.326,12.9Zm-5.065,2.06-2.907,3.779.131,4.767a.478.478,0,0,1-.638.464l-4.492-1.6-4.492,1.6a.478.478,0,0,1-.638-.464l.131-4.766L9.449,14.96a.478.478,0,0,1,.243-.75l4.573-1.348,2.7-3.932a.5.5,0,0,1,.788,0l2.7,3.932,4.573,1.348a.478.478,0,0,1,.243.75Zm-1.183-.029-4.067-1.2a.479.479,0,0,1-.259-.188l-2.4-3.5-2.4,3.5a.479.479,0,0,1-.259.188l-4.067,1.2,2.586,3.359a.476.476,0,0,1,.1.3L13.2,22.833l4-1.42a.478.478,0,0,1,.32,0l4,1.42L21.394,18.6a.476.476,0,0,1,.1-.3Zm5.527-9.875a.478.478,0,0,0-.67.683,16.482,16.482,0,1,1-3.27-2.5.479.479,0,1,0,.482-.827,17.5,17.5,0,1,0,3.458,2.643Z" transform="translate(4.67 4.47)" fill="url(#linear-gradient)"/>
  </g>
</svg>
