<svg  xmlns="http://www.w3.org/2000/svg" width="35" height="35" viewBox="0 0 25 25">
  <path  d="M8.23,5.766a.757.757,0,0,1,1.066,0L13.023,9.5a.753.753,0,0,1,.023,1.039L9.375,14.227a.753.753,0,1,1-1.066-1.062L11.43,10,8.23,6.828A.745.745,0,0,1,8.23,5.766Z" transform="translate(-1.875 -1.875)" fill="rgba(174,178,245,1)"/>
  <path d="M1.875,10A8.125,8.125,0,1,0,10,1.875,8.124,8.124,0,0,0,1.875,10Zm1.25,0A6.872,6.872,0,0,1,14.859,5.141a6.872,6.872,0,1,1-9.719,9.719A6.816,6.816,0,0,1,3.125,10Z" transform="translate(-1.875 -1.875)" fill="rgba(174,178,245,1)"/>
</svg>
