<svg  xmlns="http://www.w3.org/2000/svg" xmlns:xlink="http://www.w3.org/1999/xlink" width="25" height="28.522" viewBox="0 0 20 28.522">
  <defs>
    <linearGradient id="linear-gradient" x1="1.021" y1="0.976" x2="0.205" y2="0.284" gradientUnits="objectBoundingBox">
      <stop offset="0" stop-color="#504481"/>
      <stop offset="1" stop-color="#e7eaff"/>
    </linearGradient>
  </defs>
  <path  d="M24.305,30.827a.421.421,0,0,1-.421-.421V25.819a.421.421,0,0,1,.842,0v4.587A.421.421,0,0,1,24.305,30.827Zm17.714-5.233a.421.421,0,0,0-.421.421v6.376H23.282v-8.6a4.363,4.363,0,0,1,1.7-3.47.421.421,0,0,0-.516-.666,5.2,5.2,0,0,0-2.028,4.136v9.023a.421.421,0,0,0,.421.421H42.019a.421.421,0,0,0,.421-.421v-6.8a.421.421,0,0,0-.421-.421ZM32.44,21.323a8.263,8.263,0,0,0,5.267-1.889A4.4,4.4,0,0,1,41.6,23.789a.421.421,0,0,0,.842,0,5.256,5.256,0,0,0-3.97-5.072A8.3,8.3,0,1,0,26.085,7.681a.421.421,0,1,0,.645.542,7.432,7.432,0,1,1-1.6,3.333.421.421,0,1,0-.826-.165,8.308,8.308,0,0,0,8.141,9.932ZM25.033,10.292a.421.421,0,0,0,.553-.22,7.5,7.5,0,0,1,.335-.68.421.421,0,1,0-.736-.409,8.373,8.373,0,0,0-.373.756A.421.421,0,0,0,25.033,10.292Z" transform="translate(-22.44 -4.711)" fill="url(#linear-gradient)"/>
</svg>
